<svg xmlns="http://www.w3.org/2000/svg" viewBox="0 0 64 64">
  <circle cx="32" cy="32" r="30" fill="#162230"/>
  <path d="M32 12c-8 0-14 5-14 12 0 1 .1 2 .3 3A10 10 0 0 0 10 36c0 5.5 4.5 10 10 10h24c4.4 0 8-3.6 8-8 0-3.8-2.7-7-6.3-7.8.2-.7.3-1.4.3-2.2 0-8.8-6.3-16-14.3-16z" fill="#4fc3f7" opacity="0.9"/>
  <circle cx="22" cy="44" r="3.5" fill="#e0f7fa" stroke="#b2ebf2" stroke-width="0.5"/>
  <circle cx="32" cy="50" r="3" fill="#e0f7fa" stroke="#b2ebf2" stroke-width="0.5"/>
  <circle cx="40" cy="44" r="2.5" fill="#e0f7fa" stroke="#b2ebf2" stroke-width="0.5"/>
  <circle cx="27" cy="54" r="2" fill="#e0f7fa" stroke="#b2ebf2" stroke-width="0.5"/>
</svg>
